REM DIRINDEX 1\2,1\3,1\4,1\5,1\6
REM DIRNAME folder01,folder02,folder03,folder04,folder05,folder06
TITLE ""
FILE "DISC4Track06.mp3" MP3
  TRACK 01 AUDIO
    TITLE "0:"
    INDEX 01 00:00:00
  TRACK 02 AUDIO
    TITLE "2:cjc129_3068"
    INDEX 01 00:03:15
  TRACK 03 AUDIO
    TITLE "0:"
    INDEX 01 00:08:42
  TRACK 04 AUDIO
    TITLE "3:cjc129_3069"
    INDEX 01 00:09:53
  TRACK 05 AUDIO
    TITLE "0:"
    INDEX 01 00:11:01
  TRACK 06 AUDIO
    TITLE "5:cjc129_3070"
    INDEX 01 00:11:31
  TRACK 07 AUDIO
    TITLE "0:"
    INDEX 01 00:15:19
  TRACK 08 AUDIO
    TITLE "4:cjc129_3071"
    INDEX 01 00:16:10
  TRACK 09 AUDIO
    TITLE "0:"
    INDEX 01 00:17:33
  TRACK 10 AUDIO
    TITLE "6:cjc129_3072"
    INDEX 01 00:17:65
  TRACK 11 AUDIO
    TITLE "0:"
    INDEX 01 00:21:62
  TRACK 12 AUDIO
    TITLE "3:cjc129_3073"
    INDEX 01 00:23:38
  TRACK 13 AUDIO
    TITLE "0:"
    INDEX 01 00:25:07
  TRACK 14 AUDIO
    TITLE "5:cjc129_3074"
    INDEX 01 00:25:37
  TRACK 15 AUDIO
    TITLE "0:"
    INDEX 01 00:31:33
  TRACK 16 AUDIO
    TITLE "4:cjc129_3075"
    INDEX 01 00:32:25
  TRACK 17 AUDIO
    TITLE "0:"
    INDEX 01 00:33:66
  TRACK 18 AUDIO
    TITLE "6:cjc129_3076"
    INDEX 01 00:34:24
  TRACK 19 AUDIO
    TITLE "0:"
    INDEX 01 00:38:65
  TRACK 20 AUDIO
    TITLE "3:cjc129_3077"
    INDEX 01 00:40:40
  TRACK 21 AUDIO
    TITLE "0:"
    INDEX 01 00:41:69
  TRACK 22 AUDIO
    TITLE "5:cjc129_3078"
    INDEX 01 00:42:23
  TRACK 23 AUDIO
    TITLE "0:"
    INDEX 01 00:43:74
  TRACK 24 AUDIO
    TITLE "4:cjc129_3079"
    INDEX 01 00:44:65
  TRACK 25 AUDIO
    TITLE "0:"
    INDEX 01 00:46:17
  TRACK 26 AUDIO
    TITLE "6:cjc129_3080"
    INDEX 01 00:46:47
  TRACK 27 AUDIO
    TITLE "0:"
    INDEX 01 00:51:65
  TRACK 28 AUDIO
    TITLE "3:cjc129_3081"
    INDEX 01 00:53:41
  TRACK 29 AUDIO
    TITLE "0:"
    INDEX 01 00:55:06
  TRACK 30 AUDIO
    TITLE "5:cjc129_3082"
    INDEX 01 00:56:53
  TRACK 31 AUDIO
    TITLE "0:"
    INDEX 01 01:02:32
  TRACK 32 AUDIO
    TITLE "4:cjc129_3083"
    INDEX 01 01:03:22
  TRACK 33 AUDIO
    TITLE "0:"
    INDEX 01 01:04:60
  TRACK 34 AUDIO
    TITLE "6:cjc129_3084"
    INDEX 01 01:05:17
  TRACK 35 AUDIO
    TITLE "0:"
    INDEX 01 01:09:40
  TRACK 36 AUDIO
    TITLE "3:cjc129_3085"
    INDEX 01 01:11:15
  TRACK 37 AUDIO
    TITLE "0:"
    INDEX 01 01:12:52
  TRACK 38 AUDIO
    TITLE "5:cjc129_3086"
    INDEX 01 01:14:12
  TRACK 39 AUDIO
    TITLE "0:"
    INDEX 01 01:17:67
  TRACK 40 AUDIO
    TITLE "4:cjc129_3087"
    INDEX 01 01:18:54
  TRACK 41 AUDIO
    TITLE "0:"
    INDEX 01 01:20:20
  TRACK 42 AUDIO
    TITLE "6:cjc129_3088"
    INDEX 01 01:20:51
  TRACK 43 AUDIO
    TITLE "0:"
    INDEX 01 01:25:37
  TRACK 44 AUDIO
    TITLE "3:cjc129_3089"
    INDEX 01 01:27:10
  TRACK 45 AUDIO
    TITLE "0:"
    INDEX 01 01:28:29
  TRACK 46 AUDIO
    TITLE "5:cjc129_3090"
    INDEX 01 01:28:61
  TRACK 47 AUDIO
    TITLE "0:"
    INDEX 01 01:36:03
  TRACK 48 AUDIO
    TITLE "4:cjc129_3091"
    INDEX 01 01:36:68
  TRACK 49 AUDIO
    TITLE "0:"
    INDEX 01 01:38:10
  TRACK 50 AUDIO
    TITLE "6:cjc129_3092"
    INDEX 01 01:38:43
  TRACK 51 AUDIO
    TITLE "0:"
    INDEX 01 01:42:14
  TRACK 52 AUDIO
    TITLE "3:cjc129_3093"
    INDEX 01 01:43:64
  TRACK 53 AUDIO
    TITLE "0:"
    INDEX 01 01:45:26
  TRACK 54 AUDIO
    TITLE "5:cjc129_3094"
    INDEX 01 01:45:59
  TRACK 55 AUDIO
    TITLE "0:"
    INDEX 01 01:49:43
  TRACK 56 AUDIO
    TITLE "4:cjc129_3095"
    INDEX 01 01:50:33
  TRACK 57 AUDIO
    TITLE "0:"
    INDEX 01 01:51:74
  TRACK 58 AUDIO
    TITLE "6:cjc129_3096"
    INDEX 01 01:52:30
  TRACK 59 AUDIO
    TITLE "0:"
    INDEX 01 01:57:27
  TRACK 60 AUDIO
    TITLE "3:cjc129_3097"
    INDEX 01 01:58:74
  TRACK 61 AUDIO
    TITLE "0:"
    INDEX 01 02:00:33
  TRACK 62 AUDIO
    TITLE "5:cjc129_3098"
    INDEX 01 02:00:67
  TRACK 63 AUDIO
    TITLE "0:"
    INDEX 01 02:02:36
  TRACK 64 AUDIO
    TITLE "4:cjc129_3099"
    INDEX 01 02:03:24
  TRACK 65 AUDIO
    TITLE "0:"
    INDEX 01 02:04:59
  TRACK 66 AUDIO
    TITLE "6:cjc129_3100"
    INDEX 01 02:05:15
  TRACK 67 AUDIO
    TITLE "0:"
    INDEX 01 02:10:42
